999
dxfrw 0.6.3
  0
SECTION
  2
HEADER
  9
$ACADVER
  1
AC1021
  9
$DWGCODEPAGE
  3
ANSI_1252
  9
$INSBASE
 10
0
 20
0
 30
0
  9
$EXTMIN
 10
-700.6250000000001
 20
-285.1356020436754
 30
0
  9
$EXTMAX
 10
713.9583333333333
 20
2100.625
 30
0
  9
$LIMMIN
 10
0
 20
0
  9
$LIMMAX
 10
420
 20
297
  9
$ORTHOMODE
 70
    0
  9
$REGENMODE
 70
    1
  9
$FILLMODE
 70
    1
  9
$QTEXTMODE
 70
    0
  9
$MIRRTEXT
 70
    0
  9
$LTSCALE
 40
1
  9
$ATTMODE
 70
    0
  9
$TEXTSIZE
 40
2.5
  9
$TRACEWID
 40
15.68
  9
$TEXTSTYLE
  7
STANDARD
  9
$CLAYER
  8
wood
  9
$CELTYPE
  6
BYLAYER
  9
$CECOLOR
 62
  256
  9
$CELTSCALE
 40
1
  9
$DISPSILH
 70
    0
  9
$DIMSCALE
 40
1
  9
$DIMASZ
 40
2.5
  9
$DIMEXO
 40
0.625
  9
$DIMDLI
 40
3.75
  9
$DIMRND
 40
0
  9
$DIMDLE
 40
0
  9
$DIMEXE
 40
1.25
  9
$DIMTP
 40
0
  9
$DIMTM
 40
0
  9
$DIMTXT
 40
100
  9
$DIMCEN
 40
2.5
  9
$DIMTSZ
 40
0
  9
$DIMTOL
 70
    0
  9
$DIMLIM
 70
    0
  9
$DIMTIH
 70
    0
  9
$DIMTOH
 70
    0
  9
$DIMSE1
 70
    0
  9
$DIMSE2
 70
    0
  9
$DIMTAD
 70
    1
  9
$DIMZIN
 70
    8
  9
$DIMBLK
  1

  9
$DIMASO
 70
    1
  9
$DIMSHO
 70
    1
  9
$DIMPOST
  1

  9
$DIMAPOST
  1

  9
$DIMALT
 70
    0
  9
$DIMALTD
 70
    3
  9
$DIMALTF
 40
0.03937
  9
$DIMLFAC
 40
1
  9
$DIMTOFL
 70
    1
  9
$DIMTVP
 40
0
  9
$DIMTIX
 70
    0
  9
$DIMSOXD
 70
    0
  9
$DIMSAH
 70
    0
  9
$DIMBLK1
  1

  9
$DIMBLK2
  1

  9
$DIMSTYLE
  2
STANDARD
  9
$DIMCLRD
 70
    0
  9
$DIMCLRE
 70
    0
  9
$DIMCLRT
 70
    0
  9
$DIMTFAC
 40
1
  9
$DIMGAP
 40
0.625
  9
$DIMJUST
 70
    0
  9
$DIMSD1
 70
    0
  9
$DIMSD2
 70
    0
  9
$DIMTOLJ
 70
    0
  9
$DIMTZIN
 70
    8
  9
$DIMALTZ
 70
    0
  9
$DIMALTTZ
 70
    0
  9
$DIMUPT
 70
    0
  9
$DIMDEC
 70
    2
  9
$DIMTDEC
 70
    2
  9
$DIMALTU
 70
    2
  9
$DIMALTTD
 70
    3
  9
$DIMTXSTY
  7
standard
  9
$DIMAUNIT
 70
    0
  9
$DIMADEC
 70
    0
  9
$DIMALTRND
 40
0
  9
$DIMAZIN
 70
    0
  9
$DIMDSEP
 70
   44
  9
$DIMATFIT
 70
    3
  9
$DIMFRAC
 70
    0
  9
$DIMLDRBLK
  1
STANDARD
  9
$DIMLUNIT
 70
    2
  9
$DIMLWD
 70
   -2
  9
$DIMLWE
 70
   -2
  9
$DIMTMOVE
 70
    0
  9
$DIMFXL
 40
1
  9
$DIMFXLON
 70
    0
  9
$DIMJOGANG
 40
0.7854
  9
$DIMTFILL
 70
    0
  9
$DIMTFILLCLR
 70
    0
  9
$DIMARCSYM
 70
    0
  9
$DIMLTYPE
  6

  9
$DIMLTEX1
  6

  9
$DIMLTEX2
  6

  9
$LUNITS
 70
    2
  9
$LUPREC
 70
    4
  9
$SKETCHINC
 40
1
  9
$FILLETRAD
 40
0
  9
$AUNITS
 70
    0
  9
$AUPREC
 70
    4
  9
$MENU
  1
.
  9
$ELEVATION
 40
0
  9
$PELEVATION
 40
0
  9
$THICKNESS
 40
0
  9
$LIMCHECK
 70
    0
  9
$CHAMFERA
 40
0
  9
$CHAMFERB
 40
0
  9
$CHAMFERC
 40
0
  9
$CHAMFERD
 40
0
  9
$SKPOLY
 70
    0
  9
$USRTIMER
 70
    1
  9
$ANGBASE
 50
0
  9
$ANGDIR
 70
    0
  9
$PDMODE
 70
   34
  9
$PDSIZE
 40
0
  9
$PLINEWID
 40
0
  9
$SPLFRAME
 70
    0
  9
$SPLINETYPE
 70
    2
  9
$SPLINESEGS
 70
    8
  9
$HANDSEED
  5
20000
  9
$SURFTAB1
 70
    6
  9
$SURFTAB2
 70
    6
  9
$SURFTYPE
 70
    6
  9
$SURFU
 70
    6
  9
$SURFV
 70
    6
  9
$UCSBASE
  2

  9
$UCSNAME
  2

  9
$UCSORG
 10
0
 20
0
 30
0
  9
$UCSXDIR
 10
1
 20
0
 30
0
  9
$UCSYDIR
 10
0
 20
1
 30
0
  9
$UCSORTHOREF
  2

  9
$UCSORTHOVIEW
 70
    0
  9
$UCSORGTOP
 10
0
 20
0
 30
0
  9
$UCSORGBOTTOM
 10
0
 20
0
 30
0
  9
$UCSORGLEFT
 10
0
 20
0
 30
0
  9
$UCSORGRIGHT
 10
0
 20
0
 30
0
  9
$UCSORGFRONT
 10
0
 20
0
 30
0
  9
$UCSORGBACK
 10
0
 20
0
 30
0
  9
$PUCSBASE
  2

  9
$PUCSNAME
  2

  9
$PUCSORG
 10
0
 20
0
 30
0
  9
$PUCSXDIR
 10
1
 20
0
 30
0
  9
$PUCSYDIR
 10
0
 20
1
 30
0
  9
$PUCSORTHOREF
  2

  9
$PUCSORTHOVIEW
 70
    0
  9
$PUCSORGTOP
 10
0
 20
0
 30
0
  9
$PUCSORGBOTTOM
 10
0
 20
0
 30
0
  9
$PUCSORGLEFT
 10
0
 20
0
 30
0
  9
$PUCSORGRIGHT
 10
0
 20
0
 30
0
  9
$PUCSORGFRONT
 10
0
 20
0
 30
0
  9
$PUCSORGBACK
 10
0
 20
0
 30
0
  9
$USERI1
 70
    0
  9
$USERI2
 70
    0
  9
$USERI3
 70
    0
  9
$USERI4
 70
    0
  9
$USERI5
 70
    0
  9
$USERR1
 40
0
  9
$USERR2
 40
0
  9
$USERR3
 40
0
  9
$USERR4
 40
0
  9
$USERR5
 40
0
  9
$WORLDVIEW
 70
    1
  9
$SHADEDGE
 70
    3
  9
$SHADEDIF
 70
   70
  9
$TILEMODE
 70
    1
  9
$MAXACTVP
 70
   64
  9
$PINSBASE
 10
104.2399350296463
 20
45.00825784236988
 30
0
  9
$PLIMCHECK
 70
    0
  9
$PEXTMIN
 10
0
 20
0
 30
0
  9
$PEXTMAX
 10
0
 20
0
 30
0
  9
$GRIDMODE
 70
    1
  9
$SNAPSTYLE
 70
    0
  9
$GRIDUNIT
 10
0
 20
0
  9
$PLIMMIN
 10
0
 20
0
  9
$PLIMMAX
 10
210
 20
297
  9
$UNITMODE
 70
    0
  9
$VISRETAIN
 70
    1
  9
$PLINEGEN
 70
    0
  9
$PSLTSCALE
 70
    1
  9
$TREEDEPTH
 70
 3020
  9
$CMLSTYLE
  2
Standard
  9
$CMLJUST
 70
    0
  9
$CMLSCALE
 40
20
  9
$PROXYGRAPHICS
 70
    1
  9
$MEASUREMENT
 70
    1
  9
$CELWEIGHT
370
   -1
  9
$ENDCAPS
280
    0
  9
$JOINSTYLE
280
    0
  9
$LWDISPLAY
290
    0
  9
$INSUNITS
 70
    4
  9
$HYPERLINKBASE
  1

  9
$STYLESHEET
  1

  9
$XEDIT
290
    1
  9
$CEPSNTYPE
380
    0
  9
$PSTYLEMODE
290
    1
  9
$EXTNAMES
290
    1
  9
$PSVPSCALE
 40
0.1140097455530499
  9
$OLESTARTUP
290
    0
  9
$SORTENTS
280
  127
  9
$INDEXCTL
280
    0
  9
$HIDETEXT
280
    1
  9
$XCLIPFRAME
290
    0
  9
$HALOGAP
280
    0
  9
$OBSCOLOR
 70
  257
  9
$OBSLTYPE
280
    0
  9
$INTERSECTIONDISPLAY
280
    0
  9
$INTERSECTIONCOLOR
 70
  257
  9
$DIMASSOC
280
    1
  9
$PROJECTNAME
  1

  9
$CAMERADISPLAY
290
    0
  9
$LENSLENGTH
 40
50
  9
$CAMERAHEIGHT
 40
0
  9
$STEPSPERSEC
 40
2
  9
$STEPSIZE
 40
50
  9
$3DDWFPREC
 40
2
  9
$PSOLWIDTH
 40
5
  9
$PSOLHEIGHT
 40
80
  9
$LOFTANG1
 40
1.570796326794897
  9
$LOFTANG2
 40
1.570796326794897
  9
$LOFTMAG1
 40
0
  9
$LOFTMAG2
 40
0
  9
$LOFTPARAM
 70
    7
  9
$LOFTNORMALS
280
    1
  9
$LATITUDE
 40
1
  9
$LONGITUDE
 40
1
  9
$NORTHDIRECTION
 40
0
  9
$TIMEZONE
 70
-8000
  9
$LIGHTGLYPHDISPLAY
280
    1
  9
$TILEMODELIGHTSYNCH
280
    1
  9
$SOLIDHIST
280
    1
  9
$SHOWHIST
280
    1
  9
$DWFFRAME
280
    2
  9
$DGNFRAME
280
    0
  9
$REALWORLDSCALE
290
    1
  9
$INTERFERECOLOR
 62
    1
  9
$CSHADOW
280
    0
  9
$SHADOWPLANELOCATION
 40
0
  0
ENDSEC
  0
SECTION
  2
CLASSES
  0
ENDSEC
  0
SECTION
  2
TABLES
  0
TABLE
  2
VPORT
  5
8
330
0
100
AcDbSymbolTable
 70
    1
  0
VPORT
  5
31
330
2
100
AcDbSymbolTableRecord
100
AcDbViewportTableRecord
  2
*ACTIVE
 70
    0
 10
0
 20
0
 11
1
 21
1
 12
1545.757742201064
 22
1273.630331298602
 13
0
 23
0
 14
10
 24
10
 15
10
 25
10
 16
0
 26
0
 36
1
 17
0
 27
0
 37
0
 40
3035.979278095504
 41
1.928048780487805
 42
50
 43
0
 44
0
 50
0
 51
0
 71
    0
 72
  100
 73
    1
 74
    3
 75
    0
 76
    1
 77
    0
 78
    0
281
    0
 65
    1
110
0
120
0
130
0
111
1
121
0
131
0
112
0
122
1
132
0
 79
    0
146
0
348
10020
 60
    7
 61
    5
292
1
282
    1
141
0
142
0
 63
  250
421
3358443
  0
ENDTAB
  0
TABLE
  2
LTYPE
  5
5
330
0
100
AcDbSymbolTable
 70
    4
  0
LTYPE
  5
14
330
5
100
AcDbSymbolTableRecord
100
AcDbLinetypeTableRecord
  2
ByBlock
 70
    0
  3

 72
   65
 73
    0
 40
0
  0
LTYPE
  5
15
330
5
100
AcDbSymbolTableRecord
100
AcDbLinetypeTableRecord
  2
ByLayer
 70
    0
  3

 72
   65
 73
    0
 40
0
  0
LTYPE
  5
16
330
5
100
AcDbSymbolTableRecord
100
AcDbLinetypeTableRecord
  2
Continuous
 70
    0
  3
Solid line
 72
   65
 73
    0
 40
0
  0
LTYPE
  5
32
330
5
100
AcDbSymbolTableRecord
100
AcDbLinetypeTableRecord
  2
DOT
 70
    0
  3
Dot . . . . . . . . . . . . . . . . . . . . . .
 72
   65
 73
    2
 40
6.35
 49
0
 74
    0
 49
-6.35
 74
    0
  0
LTYPE
  5
33
330
5
100
AcDbSymbolTableRecord
100
AcDbLinetypeTableRecord
  2
DOTTINY
 70
    0
  3
Dot (.15x) .....................................
 72
   65
 73
    2
 40
0.9525
 49
0
 74
    0
 49
-0.9525
 74
    0
  0
LTYPE
  5
34
330
5
100
AcDbSymbolTableRecord
100
AcDbLinetypeTableRecord
  2
DOT2
 70
    0
  3
Dot (.5x) .....................................
 72
   65
 73
    2
 40
3.175
 49
0
 74
    0
 49
-3.175
 74
    0
  0
LTYPE
  5
35
330
5
100
AcDbSymbolTableRecord
100
AcDbLinetypeTableRecord
  2
DOTX2
 70
    0
  3
Dot (2x) .  .  .  .  .  .  .  .  .  .  .  .  .
 72
   65
 73
    2
 40
12.7
 49
0
 74
    0
 49
-12.7
 74
    0
  0
LTYPE
  5
36
330
5
100
AcDbSymbolTableRecord
100
AcDbLinetypeTableRecord
  2
DASHED
 70
    0
  3
Dashed _ _ _ _ _ _ _ _ _ _ _ _ _ _ _ _ _
 72
   65
 73
    2
 40
19.05
 49
12.7
 74
    0
 49
-6.35
 74
    0
  0
LTYPE
  5
37
330
5
100
AcDbSymbolTableRecord
100
AcDbLinetypeTableRecord
  2
DASHEDTINY
 70
    0
  3
Dashed (.15x) _ _ _ _ _ _ _ _ _ _ _ _ _ _ _ _ _
 72
   65
 73
    2
 40
2.8575
 49
1.905
 74
    0
 49
-0.9525
 74
    0
  0
LTYPE
  5
38
330
5
100
AcDbSymbolTableRecord
100
AcDbLinetypeTableRecord
  2
DASHED2
 70
    0
  3
Dashed (.5x) _ _ _ _ _ _ _ _ _ _ _ _ _ _ _ _ _
 72
   65
 73
    2
 40
9.524999999999999
 49
6.35
 74
    0
 49
-3.175
 74
    0
  0
LTYPE
  5
39
330
5
100
AcDbSymbolTableRecord
100
AcDbLinetypeTableRecord
  2
DASHEDX2
 70
    0
  3
Dashed (2x) ____  ____  ____  ____  ____  ___
 72
   65
 73
    2
 40
38.09999999999999
 49
25.4
 74
    0
 49
-12.7
 74
    0
  0
LTYPE
  5
3A
330
5
100
AcDbSymbolTableRecord
100
AcDbLinetypeTableRecord
  2
DASHDOT
 70
    0
  3
Dash dot __ . __ . __ . __ . __ . __ . __ . __
 72
   65
 73
    4
 40
25.4
 49
12.7
 74
    0
 49
-6.35
 74
    0
 49
0
 74
    0
 49
-6.35
 74
    0
  0
LTYPE
  5
3B
330
5
100
AcDbSymbolTableRecord
100
AcDbLinetypeTableRecord
  2
DASHDOTTINY
 70
    0
  3
Dash dot (.15x) _._._._._._._._._._._._._._._.
 72
   65
 73
    4
 40
3.81
 49
1.905
 74
    0
 49
-0.9525
 74
    0
 49
0
 74
    0
 49
-0.9525
 74
    0
  0
LTYPE
  5
3C
330
5
100
AcDbSymbolTableRecord
100
AcDbLinetypeTableRecord
  2
DASHDOT2
 70
    0
  3
Dash dot (.5x) _._._._._._._._._._._._._._._.
 72
   65
 73
    4
 40
12.7
 49
6.35
 74
    0
 49
-3.175
 74
    0
 49
0
 74
    0
 49
-3.175
 74
    0
  0
LTYPE
  5
3D
330
5
100
AcDbSymbolTableRecord
100
AcDbLinetypeTableRecord
  2
DASHDOTX2
 70
    0
  3
Dash dot (2x) ____  .  ____  .  ____  .  ___
 72
   65
 73
    4
 40
50.8
 49
25.4
 74
    0
 49
-12.7
 74
    0
 49
0
 74
    0
 49
-12.7
 74
    0
  0
LTYPE
  5
3E
330
5
100
AcDbSymbolTableRecord
100
AcDbLinetypeTableRecord
  2
DIVIDE
 70
    0
  3
Divide ____ . . ____ . . ____ . . ____ . . ____
 72
   65
 73
    6
 40
31.75
 49
12.7
 74
    0
 49
-6.35
 74
    0
 49
0
 74
    0
 49
-6.35
 74
    0
 49
0
 74
    0
 49
-6.35
 74
    0
  0
LTYPE
  5
3F
330
5
100
AcDbSymbolTableRecord
100
AcDbLinetypeTableRecord
  2
DIVIDETINY
 70
    0
  3
Divide (.15x) __..__..__..__..__..__..__..__.._
 72
   65
 73
    6
 40
4.7625
 49
1.905
 74
    0
 49
-0.9525
 74
    0
 49
0
 74
    0
 49
-0.9525
 74
    0
 49
0
 74
    0
 49
-0.9525
 74
    0
  0
LTYPE
  5
40
330
5
100
AcDbSymbolTableRecord
100
AcDbLinetypeTableRecord
  2
DIVIDE2
 70
    0
  3
Divide (.5x) __..__..__..__..__..__..__..__.._
 72
   65
 73
    6
 40
15.875
 49
6.35
 74
    0
 49
-3.175
 74
    0
 49
0
 74
    0
 49
-3.175
 74
    0
 49
0
 74
    0
 49
-3.175
 74
    0
  0
LTYPE
  5
41
330
5
100
AcDbSymbolTableRecord
100
AcDbLinetypeTableRecord
  2
DIVIDEX2
 70
    0
  3
Divide (2x) ________  .  .  ________  .  .  _
 72
   65
 73
    6
 40
63.5
 49
25.4
 74
    0
 49
-12.7
 74
    0
 49
0
 74
    0
 49
-12.7
 74
    0
 49
0
 74
    0
 49
-12.7
 74
    0
  0
LTYPE
  5
42
330
5
100
AcDbSymbolTableRecord
100
AcDbLinetypeTableRecord
  2
BORDER
 70
    0
  3
Border __ __ . __ __ . __ __ . __ __ . __ __ .
 72
   65
 73
    6
 40
44.45
 49
12.7
 74
    0
 49
-6.35
 74
    0
 49
12.7
 74
    0
 49
-6.35
 74
    0
 49
0
 74
    0
 49
-6.35
 74
    0
  0
LTYPE
  5
43
330
5
100
AcDbSymbolTableRecord
100
AcDbLinetypeTableRecord
  2
BORDERTINY
 70
    0
  3
Border (.15x) __.__.__.__.__.__.__.__.__.__.__.
 72
   65
 73
    6
 40
6.6675
 49
1.905
 74
    0
 49
-0.9525
 74
    0
 49
1.905
 74
    0
 49
-0.9525
 74
    0
 49
0
 74
    0
 49
-0.9525
 74
    0
  0
LTYPE
  5
44
330
5
100
AcDbSymbolTableRecord
100
AcDbLinetypeTableRecord
  2
BORDER2
 70
    0
  3
Border (.5x) __.__.__.__.__.__.__.__.__.__.__.
 72
   65
 73
    6
 40
22.225
 49
6.35
 74
    0
 49
-3.175
 74
    0
 49
6.35
 74
    0
 49
-3.175
 74
    0
 49
0
 74
    0
 49
-3.175
 74
    0
  0
LTYPE
  5
45
330
5
100
AcDbSymbolTableRecord
100
AcDbLinetypeTableRecord
  2
BORDERX2
 70
    0
  3
Border (2x) ____  ____  .  ____  ____  .  ___
 72
   65
 73
    6
 40
88.89999999999999
 49
25.4
 74
    0
 49
-12.7
 74
    0
 49
25.4
 74
    0
 49
-12.7
 74
    0
 49
0
 74
    0
 49
-12.7
 74
    0
  0
LTYPE
  5
46
330
5
100
AcDbSymbolTableRecord
100
AcDbLinetypeTableRecord
  2
CENTER
 70
    0
  3
Center ____ _ ____ _ ____ _ ____ _ ____ _ ____
 72
   65
 73
    4
 40
50.8
 49
31.75
 74
    0
 49
-6.35
 74
    0
 49
6.35
 74
    0
 49
-6.35
 74
    0
  0
LTYPE
  5
47
330
5
100
AcDbSymbolTableRecord
100
AcDbLinetypeTableRecord
  2
CENTERTINY
 70
    0
  3
Center (.15x) ___ _ ___ _ ___ _ ___ _ ___ _ ___
 72
   65
 73
    4
 40
7.62
 49
4.7625
 74
    0
 49
-0.9525
 74
    0
 49
0.9525
 74
    0
 49
-0.9525
 74
    0
  0
LTYPE
  5
48
330
5
100
AcDbSymbolTableRecord
100
AcDbLinetypeTableRecord
  2
CENTER2
 70
    0
  3
Center (.5x) ___ _ ___ _ ___ _ ___ _ ___ _ ___
 72
   65
 73
    4
 40
28.575
 49
19.05
 74
    0
 49
-3.175
 74
    0
 49
3.175
 74
    0
 49
-3.175
 74
    0
  0
LTYPE
  5
49
330
5
100
AcDbSymbolTableRecord
100
AcDbLinetypeTableRecord
  2
CENTERX2
 70
    0
  3
Center (2x) ________  __  ________  __  _____
 72
   65
 73
    4
 40
101.6
 49
63.5
 74
    0
 49
-12.7
 74
    0
 49
12.7
 74
    0
 49
-12.7
 74
    0
  0
ENDTAB
  0
TABLE
  2
LAYER
  5
2
330
0
100
AcDbSymbolTable
 70
    1
  0
LAYER
  5
10
330
2
100
AcDbSymbolTableRecord
100
AcDbLayerTableRecord
  2
0
 70
    0
 62
    5
  6
CONTINUOUS
370
    0
390
F
  0
LAYER
  5
4A
330
2
100
AcDbSymbolTableRecord
100
AcDbLayerTableRecord
  2
ann
 70
    0
 62
    1
  6
CONTINUOUS
370
    0
390
F
  0
LAYER
  5
4B
330
2
100
AcDbSymbolTableRecord
100
AcDbLayerTableRecord
  2
wood
 70
    0
 62
    8
  6
CONTINUOUS
370
    0
390
F
  0
LAYER
  5
4C
330
2
100
AcDbSymbolTableRecord
100
AcDbLayerTableRecord
  2
wood ann
 70
    0
 62
    1
  6
CONTINUOUS
370
    0
390
F
  0
LAYER
  5
4D
330
2
100
AcDbSymbolTableRecord
100
AcDbLayerTableRecord
  2
wood ann helper
 70
    0
 62
    8
  6
DOTTINY
370
    0
390
F
  0
ENDTAB
  0
TABLE
  2
STYLE
  5
3
330
0
100
AcDbSymbolTable
 70
    3
  0
STYLE
  5
4E
330
2
100
AcDbSymbolTableRecord
100
AcDbTextStyleTableRecord
  2
Standard
 70
    0
 40
0
 41
1
 50
0
 71
    0
 42
1
  3
txt
  4

  0
ENDTAB
  0
TABLE
  2
VIEW
  5
6
330
0
100
AcDbSymbolTable
 70
    0
  0
ENDTAB
  0
TABLE
  2
UCS
  5
7
330
0
100
AcDbSymbolTable
 70
    0
  0
ENDTAB
  0
TABLE
  2
APPID
  5
9
330
0
100
AcDbSymbolTable
 70
    1
  0
APPID
  5
12
330
9
100
AcDbSymbolTableRecord
100
AcDbRegAppTableRecord
  2
ACAD
 70
    0
  0
APPID
  5
4F
330
9
100
AcDbSymbolTableRecord
100
AcDbRegAppTableRecord
  2
LibreCad
 70
    0
  0
ENDTAB
  0
TABLE
  2
DIMSTYLE
  5
A
330
0
100
AcDbSymbolTable
 70
    1
100
AcDbDimStyleTable
 71
    1
  0
DIMSTYLE
105
50
330
A
100
AcDbSymbolTableRecord
100
AcDbDimStyleTableRecord
  2
Standard
 70
    0
 40
1
 41
2.5
 42
0.625
 43
0.38
 44
1.25
 45
0
 46
0
 47
0
 48
0
 49
1
140
100
141
0.09
142
0
143
25.4
144
1
145
0
146
1
147
0.625
148
0
 71
    0
 72
    0
 73
    0
 74
    1
 75
    0
 76
    0
 77
    0
 78
    8
 79
    0
170
    0
171
    2
172
    0
173
    0
174
    0
175
    0
176
    0
177
    0
178
    0
179
    0
271
    2
272
    4
273
    2
274
    2
275
    0
276
    0
277
    2
278
   44
279
    0
280
    0
281
    0
282
    0
283
    1
284
    0
285
    0
286
    0
288
    0
289
    3
340
standard
341

371
   -2
372
   -2
  0
ENDTAB
  0
TABLE
  2
BLOCK_RECORD
  5
1
330
0
100
AcDbSymbolTable
 70
    2
  0
BLOCK_RECORD
  5
1F
330
1
100
AcDbSymbolTableRecord
100
AcDbBlockTableRecord
  2
*Model_Space
 70
    0
280
    1
281
    0
  0
BLOCK_RECORD
  5
1E
330
1
100
AcDbSymbolTableRecord
100
AcDbBlockTableRecord
  2
*Paper_Space
 70
    0
280
    1
281
    0
  0
BLOCK_RECORD
  5
51
330
1
100
AcDbSymbolTableRecord
100
AcDbBlockTableRecord
  2
*D8
 70
    0
280
    1
281
    0
  0
BLOCK_RECORD
  5
54
330
1
100
AcDbSymbolTableRecord
100
AcDbBlockTableRecord
  2
*D4
 70
    0
280
    1
281
    0
  0
BLOCK_RECORD
  5
57
330
1
100
AcDbSymbolTableRecord
100
AcDbBlockTableRecord
  2
*D12
 70
    0
280
    1
281
    0
  0
BLOCK_RECORD
  5
5A
330
1
100
AcDbSymbolTableRecord
100
AcDbBlockTableRecord
  2
*D2
 70
    0
280
    1
281
    0
  0
BLOCK_RECORD
  5
5D
330
1
100
AcDbSymbolTableRecord
100
AcDbBlockTableRecord
  2
*D11
 70
    0
280
    1
281
    0
  0
BLOCK_RECORD
  5
60
330
1
100
AcDbSymbolTableRecord
100
AcDbBlockTableRecord
  2
*D1
 70
    0
280
    1
281
    0
  0
BLOCK_RECORD
  5
63
330
1
100
AcDbSymbolTableRecord
100
AcDbBlockTableRecord
  2
*D5
 70
    0
280
    1
281
    0
  0
BLOCK_RECORD
  5
66
330
1
100
AcDbSymbolTableRecord
100
AcDbBlockTableRecord
  2
*D10
 70
    0
280
    1
281
    0
  0
BLOCK_RECORD
  5
69
330
1
100
AcDbSymbolTableRecord
100
AcDbBlockTableRecord
  2
*D3
 70
    0
280
    1
281
    0
  0
BLOCK_RECORD
  5
6C
330
1
100
AcDbSymbolTableRecord
100
AcDbBlockTableRecord
  2
*D7
 70
    0
280
    1
281
    0
  0
BLOCK_RECORD
  5
6F
330
1
100
AcDbSymbolTableRecord
100
AcDbBlockTableRecord
  2
*D9
 70
    0
280
    1
281
    0
  0
BLOCK_RECORD
  5
72
330
1
100
AcDbSymbolTableRecord
100
AcDbBlockTableRecord
  2
*D6
 70
    0
280
    1
281
    0
  0
ENDTAB
  0
ENDSEC
  0
SECTION
  2
BLOCKS
  0
BLOCK
  5
20
330
1F
100
AcDbEntity
  8
0
100
AcDbBlockBegin
  2
*Model_Space
 70
    0
 10
0
 20
0
 30
0
  3
*Model_Space
  1

  0
ENDBLK
  5
21
330
1F
100
AcDbEntity
  8
0
100
AcDbBlockEnd
  0
BLOCK
  5
1C
330
1B
100
AcDbEntity
  8
0
100
AcDbBlockBegin
  2
*Paper_Space
 70
    0
 10
0
 20
0
 30
0
  3
*Paper_Space
  1

  0
ENDBLK
  5
1D
330
1F
100
AcDbEntity
  8
0
100
AcDbBlockEnd
  0
BLOCK
  5
52
330
51
100
AcDbEntity
  8
0
100
AcDbBlockBegin
  2
*D8
 70
    1
 10
0
 20
0
  3
*D8
  1

  0
LINE
  5
75
100
AcDbEntity
  8
wood ann
  6
ByBlock
 62
    0
370
   -2
100
AcDbLine
 10
30.23854535461585
 20
1353.436198335752
 11
159.4266062625206
 21
1368.116659802559
  0
LINE
  5
76
100
AcDbEntity
  8
wood ann
  6
ByBlock
 62
    0
370
   -2
100
AcDbLine
 10
184.0300941933345
 20
0.07056855502768036
 11
313.2181551012392
 21
14.75103002183501
  0
LINE
  5
77
100
AcDbEntity
  8
wood ann
  6
ByBlock
 62
    0
370
   -2
100
AcDbLine
 10
158.1845996940334
 20
1367.975522692504
 11
311.9761485327521
 21
14.60989291177965
  0
SOLID
  5
78
100
AcDbEntity
  8
wood ann
  6
ByBlock
 62
    0
370
   -2
100
AcDbTrace
 10
158.1845996940334
 20
1367.975522692504
 30
0
 11
158.8804965375956
 21
1365.538512126376
 31
0
 12
158.0532512906927
 22
1365.444506984683
 32
0
 13
158.0532512906927
 23
1365.444506984683
 33
0
  0
SOLID
  5
79
100
AcDbEntity
  8
wood ann
  6
ByBlock
 62
    0
370
   -2
100
AcDbTrace
 10
311.9761485327521
 20
14.60989291177965
 30
0
 11
311.2802516891899
 21
17.0469034779072
 31
0
 12
312.1074969360928
 22
17.1409086196007
 32
0
 13
312.1074969360928
 23
17.1409086196007
 33
0
  0
MTEXT
  5
7A
100
AcDbEntity
  8
wood ann
  6
CONTINUOUS
 62
    0
370
   -2
100
AcDbMText
 10
285.3816401371222
 20
697.0087607593838
 30
0
 40
100
 41
450.0000000000124
 71
    5
 72
    1
  1
1362,08
  7
standard
210
0
220
0
230
1
 50
276.4830736928972
 73
    2
 44
1
  0
ENDBLK
  5
53
330
51
100
AcDbEntity
  8
0
100
AcDbBlockEnd
  0
BLOCK
  5
55
330
54
100
AcDbEntity
  8
0
100
AcDbBlockBegin
  2
*D4
 70
    1
 10
0
 20
0
  3
*D4
  1

  0
LINE
  5
7B
100
AcDbEntity
  8
ann
  6
ByBlock
 62
    0
370
   -2
100
AcDbLine
 10
700
 20
1630
 11
700
 21
1380
  0
SOLID
  5
7C
100
AcDbEntity
  8
ann
  6
ByBlock
 62
    0
370
   -2
100
AcDbTrace
 10
700
 20
1630
 30
0
 11
700.4162846577728
 21
1627.5
 31
0
 12
699.5837153422272
 22
1627.5
 32
0
 13
699.5837153422272
 23
1627.5
 33
0
  0
SOLID
  5
7D
100
AcDbEntity
  8
ann
  6
ByBlock
 62
    0
370
   -2
100
AcDbTrace
 10
700
 20
1380
 30
0
 11
699.5837153422272
 21
1382.5
 31
0
 12
700.4162846577728
 22
1382.5
 32
0
 13
700.4162846577728
 23
1382.5
 33
0
  0
MTEXT
  5
7E
100
AcDbEntity
  8
ann
  6
CONTINUOUS
 62
    0
370
   -2
100
AcDbMText
 10
649.375
 20
1505
 30
0
 40
100
 41
200.0000000000062
 71
    5
 72
    1
  1
250
  7
standard
210
0
220
0
230
1
 50
90
 73
    2
 44
1
  0
LINE
  5
7F
100
AcDbEntity
  8
ann
  6
ByBlock
 62
    0
370
   -2
100
AcDbLine
 10
30.625
 20
1630
 11
701.25
 21
1630
  0
LINE
  5
80
100
AcDbEntity
  8
ann
  6
ByBlock
 62
    0
370
   -2
100
AcDbLine
 10
30.625
 20
1380
 11
701.25
 21
1380
  0
ENDBLK
  5
56
330
54
100
AcDbEntity
  8
0
100
AcDbBlockEnd
  0
BLOCK
  5
58
330
57
100
AcDbEntity
  8
0
100
AcDbBlockBegin
  2
*D12
 70
    1
 10
0
 20
0
  3
*D12
  1

  0
LINE
  5
81
100
AcDbEntity
  8
wood ann
  6
ByBlock
 62
    0
370
   -2
100
AcDbLine
 10
159.6807409627253
 20
15.07056855502768
 11
232.0204325970246
 21
23.29098805892538
  0
LINE
  5
82
100
AcDbEntity
  8
wood ann
  6
ByBlock
 62
    0
370
   -2
100
AcDbLine
 10
161.6739759605658
 20
-2.469899425968753
 11
234.0136675948652
 21
5.750520077928948
  0
LINE
  5
83
100
AcDbEntity
  8
wood ann
  6
ByBlock
 62
    0
370
   -2
100
AcDbLine
 10
230.7784260285375
 20
23.14985094887002
 11
232.771661026378
 21
5.609382967873589
  0
SOLID
  5
84
100
AcDbEntity
  8
wood ann
  6
ByBlock
 62
    0
370
   -2
100
AcDbTrace
 10
230.7784260285375
 20
23.14985094887002
 30
0
 11
231.4743228720996
 21
20.71284038274248
 31
0
 12
230.6470776251968
 22
20.61883524104897
 32
0
 13
230.6470776251968
 23
20.61883524104897
 33
0
  0
SOLID
  5
85
100
AcDbEntity
  8
wood ann
  6
ByBlock
 62
    0
370
   -2
100
AcDbTrace
 10
232.771661026378
 20
5.609382967873589
 30
0
 11
232.0757641828159
 21
8.046393534001131
 31
0
 12
232.9030094297187
 22
8.140398675694641
 32
0
 13
232.9030094297187
 23
8.140398675694641
 33
0
  0
MTEXT
  5
86
100
AcDbEntity
  8
wood ann
  6
CONTINUOUS
 62
    0
370
   -2
100
AcDbMText
 10
299.7663107894337
 20
-135.5763409809538
 30
0
 40
100
 41
294.4444444444568
 71
    5
 72
    1
  1
17,65
  7
standard
210
0
220
0
230
1
 50
276.4830736928973
 73
    2
 44
1
  0
ENDBLK
  5
59
330
57
100
AcDbEntity
  8
0
100
AcDbBlockEnd
  0
BLOCK
  5
5B
330
5A
100
AcDbEntity
  8
0
100
AcDbBlockBegin
  2
*D2
 70
    1
 10
0
 20
0
  3
*D2
  1

  0
LINE
  5
87
100
AcDbEntity
  8
ann
  6
ByBlock
 62
    0
370
   -2
100
AcDbLine
 10
30
 20
2000
 11
330
 21
2000
  0
SOLID
  5
88
100
AcDbEntity
  8
ann
  6
ByBlock
 62
    0
370
   -2
100
AcDbTrace
 10
30
 20
2000
 30
0
 11
32.5
 21
2000.416284657773
 31
0
 12
32.5
 22
1999.583715342227
 32
0
 13
32.5
 23
1999.583715342227
 33
0
  0
SOLID
  5
89
100
AcDbEntity
  8
ann
  6
ByBlock
 62
    0
370
   -2
100
AcDbTrace
 10
330
 20
2000
 30
0
 11
327.5
 21
1999.583715342227
 31
0
 12
327.5
 22
2000.416284657773
 32
0
 13
327.5
 23
2000.416284657773
 33
0
  0
MTEXT
  5
8A
100
AcDbEntity
  8
ann
  6
CONTINUOUS
 62
    0
370
   -2
100
AcDbMText
 10
180
 20
2050.625
 30
0
 40
100
 41
200.0000000000062
 71
    5
 72
    1
  1
300
  7
standard
210
0
220
0
230
1
 50
0
 73
    2
 44
1
  0
LINE
  5
8B
100
AcDbEntity
  8
ann
  6
ByBlock
 62
    0
370
   -2
100
AcDbLine
 10
30
 20
1910.625
 11
30
 21
2001.25
  0
LINE
  5
8C
100
AcDbEntity
  8
ann
  6
ByBlock
 62
    0
370
   -2
100
AcDbLine
 10
330
 20
1910.625
 11
330
 21
2001.25
  0
ENDBLK
  5
5C
330
5A
100
AcDbEntity
  8
0
100
AcDbBlockEnd
  0
BLOCK
  5
5E
330
5D
100
AcDbEntity
  8
0
100
AcDbBlockBegin
  2
*D11
 70
    1
 10
0
 20
0
  3
*D11
  1

  0
LINE
  5
8D
100
AcDbEntity
  8
wood ann
  6
ByBlock
 62
    0
370
   -2
100
AcDbLine
 10
7.882427121847158
 20
1350.895730354755
 11
280.5892783685892
 21
1381.885145269157
  0
LINE
  5
8E
100
AcDbEntity
  8
wood ann
  6
ByBlock
 62
    0
370
   -2
100
AcDbLine
 10
15.62100328424362
 20
1282.796260125667
 11
288.3278545309857
 21
1313.785675040069
  0
LINE
  5
8F
100
AcDbEntity
  8
wood ann
  6
ByBlock
 62
    0
370
   -2
100
AcDbLine
 10
279.3472718001021
 20
1381.744008159102
 11
287.0858479624986
 21
1313.644537930013
  0
SOLID
  5
90
100
AcDbEntity
  8
wood ann
  6
ByBlock
 62
    0
370
   -2
100
AcDbTrace
 10
279.3472718001021
 20
1381.744008159102
 30
0
 11
280.0431686436642
 21
1379.306997592975
 31
0
 12
279.2159233967614
 22
1379.212992451281
 32
0
 13
279.2159233967614
 23
1379.212992451281
 33
0
  0
SOLID
  5
91
100
AcDbEntity
  8
wood ann
  6
ByBlock
 62
    0
370
   -2
100
AcDbTrace
 10
287.0858479624986
 20
1313.644537930013
 30
0
 11
286.3899511189364
 21
1316.081548496141
 31
0
 12
287.2171963658393
 22
1316.175553637835
 32
0
 13
287.2171963658393
 23
1316.175553637835
 33
0
  0
MTEXT
  5
92
100
AcDbEntity
  8
wood ann
  6
CONTINUOUS
 62
    0
370
   -2
100
AcDbMText
 10
355.9623258596257
 20
1155.898726401357
 30
0
 40
100
 41
327.7777777777902
 71
    5
 72
    1
  1
68,54
  7
standard
210
0
220
0
230
1
 50
276.4830736928973
 73
    2
 44
1
  0
ENDBLK
  5
5F
330
5D
100
AcDbEntity
  8
0
100
AcDbBlockEnd
  0
BLOCK
  5
61
330
60
100
AcDbEntity
  8
0
100
AcDbBlockBegin
  2
*D1
 70
    1
 10
0
 20
0
  3
*D1
  1

  0
LINE
  5
93
100
AcDbEntity
  8
ann
  6
ByBlock
 62
    0
370
   -2
100
AcDbLine
 10
-400.0000000000001
 20
1350
 11
-400.0000000000001
 21
30
  0
SOLID
  5
94
100
AcDbEntity
  8
ann
  6
ByBlock
 62
    0
370
   -2
100
AcDbTrace
 10
-400.0000000000001
 20
1350
 30
0
 11
-399.5837153422273
 21
1347.5
 31
0
 12
-400.416284657773
 22
1347.5
 32
0
 13
-400.416284657773
 23
1347.5
 33
0
  0
SOLID
  5
95
100
AcDbEntity
  8
ann
  6
ByBlock
 62
    0
370
   -2
100
AcDbTrace
 10
-400.0000000000001
 20
30
 30
0
 11
-400.416284657773
 21
32.5
 31
0
 12
-399.5837153422273
 22
32.5
 32
0
 13
-399.5837153422273
 23
32.5
 33
0
  0
MTEXT
  5
96
100
AcDbEntity
  8
ann
  6
CONTINUOUS
 62
    0
370
   -2
100
AcDbMText
 10
-450.6250000000001
 20
690
 30
0
 40
100
 41
255.5555555555617
 71
    5
 72
    1
  1
1320
  7
standard
210
0
220
0
230
1
 50
90
 73
    2
 44
1
  0
LINE
  5
97
100
AcDbEntity
  8
ann
  6
ByBlock
 62
    0
370
   -2
100
AcDbLine
 10
29.375
 20
1350
 11
-401.2500000000001
 21
1350
  0
LINE
  5
98
100
AcDbEntity
  8
ann
  6
ByBlock
 62
    0
370
   -2
100
AcDbLine
 10
29.375
 20
30
 11
-401.2500000000001
 21
30
  0
ENDBLK
  5
62
330
60
100
AcDbEntity
  8
0
100
AcDbBlockEnd
  0
BLOCK
  5
64
330
63
100
AcDbEntity
  8
0
100
AcDbBlockBegin
  2
*D5
 70
    1
 10
0
 20
0
  3
*D5
  1

  0
LINE
  5
99
100
AcDbEntity
  8
ann
  6
ByBlock
 62
    0
370
   -2
100
AcDbLine
 10
-600.0000000000001
 20
0
 11
-600.0000000000001
 21
1940
  0
SOLID
  5
9A
100
AcDbEntity
  8
ann
  6
ByBlock
 62
    0
370
   -2
100
AcDbTrace
 10
-600.0000000000001
 20
0
 30
0
 11
-600.416284657773
 21
2.5
 31
0
 12
-599.5837153422273
 22
2.5
 32
0
 13
-599.5837153422273
 23
2.5
 33
0
  0
SOLID
  5
9B
100
AcDbEntity
  8
ann
  6
ByBlock
 62
    0
370
   -2
100
AcDbTrace
 10
-600.0000000000001
 20
1940
 30
0
 11
-599.5837153422273
 21
1937.5
 31
0
 12
-600.416284657773
 22
1937.5
 32
0
 13
-600.416284657773
 23
1937.5
 33
0
  0
MTEXT
  5
9C
100
AcDbEntity
  8
ann
  6
CONTINUOUS
 62
    0
370
   -2
100
AcDbMText
 10
-650.6250000000001
 20
970
 30
0
 40
100
 41
266.6666666666666
 71
    5
 72
    1
  1
1940
  7
standard
210
0
220
0
230
1
 50
90
 73
    2
 44
1
  0
LINE
  5
9D
100
AcDbEntity
  8
ann
  6
ByBlock
 62
    0
370
   -2
100
AcDbLine
 10
-0.625
 20
7.653789711389858e-017
 11
-601.2500000000001
 21
1.530757942277972e-016
  0
LINE
  5
9E
100
AcDbEntity
  8
ann
  6
ByBlock
 62
    0
370
   -2
100
AcDbLine
 10
-0.6249999999998812
 20
1940
 11
-601.2500000000001
 21
1940
  0
ENDBLK
  5
65
330
63
100
AcDbEntity
  8
0
100
AcDbBlockEnd
  0
BLOCK
  5
67
330
66
100
AcDbEntity
  8
0
100
AcDbBlockBegin
  2
*D10
 70
    1
 10
0
 20
0
  3
*D10
  1

  0
LINE
  5
9F
100
AcDbEntity
  8
wood ann
  6
ByBlock
 62
    0
370
   -2
100
AcDbLine
 10
-15.71569767940868
 20
1348.214125263704
 11
-192.4097781136173
 21
1328.135252487089
  0
LINE
  5
A0
100
AcDbEntity
  8
wood ann
  6
ByBlock
 62
    0
370
   -2
100
AcDbLine
 10
-0.6210032842434999
 20
1215.38081458625
 11
-177.3150837184521
 21
1195.301941809636
  0
LINE
  5
A1
100
AcDbEntity
  8
wood ann
  6
ByBlock
 62
    0
370
   -2
100
AcDbLine
 10
-191.1677715451301
 20
1328.276389597145
 11
-176.0730771499649
 21
1195.443078919691
  0
SOLID
  5
A2
100
AcDbEntity
  8
wood ann
  6
ByBlock
 62
    0
370
   -2
100
AcDbTrace
 10
-191.1677715451301
 20
1328.276389597145
 30
0
 11
-190.471874701568
 21
1325.839379031017
 31
0
 12
-191.2991199484709
 22
1325.745373889323
 32
0
 13
-191.2991199484709
 23
1325.745373889323
 33
0
  0
SOLID
  5
A3
100
AcDbEntity
  8
wood ann
  6
ByBlock
 62
    0
370
   -2
100
AcDbTrace
 10
-176.0730771499649
 20
1195.443078919691
 30
0
 11
-176.7689739935271
 21
1197.880089485818
 31
0
 12
-175.9417287466242
 22
1197.974094627512
 32
0
 13
-175.9417287466242
 23
1197.974094627512
 33
0
  0
MTEXT
  5
A4
100
AcDbEntity
  8
wood ann
  6
CONTINUOUS
 62
    0
370
   -2
100
AcDbMText
 10
-104.6874950740757
 20
1015.617150617927
 30
0
 40
100
 41
372.2222222222409
 71
    5
 72
    1
  1
133,69
  7
standard
210
0
220
0
230
1
 50
276.4830736928972
 73
    2
 44
1
  0
ENDBLK
  5
68
330
66
100
AcDbEntity
  8
0
100
AcDbBlockEnd
  0
BLOCK
  5
6A
330
69
100
AcDbEntity
  8
0
100
AcDbBlockBegin
  2
*D3
 70
    1
 10
0
 20
0
  3
*D3
  1

  0
LINE
  5
A5
100
AcDbEntity
  8
ann
  6
ByBlock
 62
    0
370
   -2
100
AcDbLine
 10
500
 20
1660
 11
500
 21
1630
  0
SOLID
  5
A6
100
AcDbEntity
  8
ann
  6
ByBlock
 62
    0
370
   -2
100
AcDbTrace
 10
500
 20
1660
 30
0
 11
500.4162846577728
 21
1657.5
 31
0
 12
499.5837153422272
 22
1657.5
 32
0
 13
499.5837153422272
 23
1657.5
 33
0
  0
SOLID
  5
A7
100
AcDbEntity
  8
ann
  6
ByBlock
 62
    0
370
   -2
100
AcDbTrace
 10
500
 20
1630
 30
0
 11
499.5837153422272
 21
1632.5
 31
0
 12
500.4162846577728
 22
1632.5
 32
0
 13
500.4162846577728
 23
1632.5
 33
0
  0
MTEXT
  5
A8
100
AcDbEntity
  8
ann
  6
CONTINUOUS
 62
    0
370
   -2
100
AcDbMText
 10
449.375
 20
1721.736111111114
 30
0
 40
100
 41
122.2222222222284
 71
    5
 72
    1
  1
30
  7
standard
210
0
220
0
230
1
 50
90
 73
    2
 44
1
  0
LINE
  5
A9
100
AcDbEntity
  8
ann
  6
ByBlock
 62
    0
370
   -2
100
AcDbLine
 10
330.625
 20
1660
 11
501.25
 21
1660
  0
LINE
  5
AA
100
AcDbEntity
  8
ann
  6
ByBlock
 62
    0
370
   -2
100
AcDbLine
 10
330.625
 20
1630
 11
501.25
 21
1630
  0
ENDBLK
  5
6B
330
69
100
AcDbEntity
  8
0
100
AcDbBlockEnd
  0
BLOCK
  5
6D
330
6C
100
AcDbEntity
  8
0
100
AcDbBlockBegin
  2
*D7
 70
    1
 10
0
 20
0
  3
*D7
  1

  0
LINE
  5
AB
100
AcDbEntity
  8
ann
  6
ByBlock
 62
    0
370
   -2
100
AcDbLine
 10
-200.0000000000001
 20
1282.725691570639
 11
-200.0000000000001
 21
0
  0
SOLID
  5
AC
100
AcDbEntity
  8
ann
  6
ByBlock
 62
    0
370
   -2
100
AcDbTrace
 10
-200.0000000000001
 20
1282.725691570639
 30
0
 11
-199.5837153422272
 21
1280.225691570639
 31
0
 12
-200.4162846577729
 22
1280.225691570639
 32
0
 13
-200.4162846577729
 23
1280.225691570639
 33
0
  0
SOLID
  5
AD
100
AcDbEntity
  8
ann
  6
ByBlock
 62
    0
370
   -2
100
AcDbTrace
 10
-200.0000000000001
 20
0
 30
0
 11
-200.4162846577729
 21
2.5
 31
0
 12
-199.5837153422272
 22
2.5
 32
0
 13
-199.5837153422272
 23
2.5
 33
0
  0
MTEXT
  5
AE
100
AcDbEntity
  8
ann
  6
CONTINUOUS
 62
    0
370
   -2
100
AcDbMText
 10
-250.6250000000001
 20
641.3628457853195
 30
0
 40
100
 41
450.000000000006
 71
    5
 72
    1
  1
1282,73
  7
standard
210
0
220
0
230
1
 50
90
 73
    2
 44
1
  0
LINE
  5
AF
100
AcDbEntity
  8
ann
  6
ByBlock
 62
    0
370
   -2
100
AcDbLine
 10
14.37500000000004
 20
1282.725691570639
 11
-201.2500000000001
 21
1282.725691570639
  0
LINE
  5
B0
100
AcDbEntity
  8
ann
  6
ByBlock
 62
    0
370
   -2
100
AcDbLine
 10
-0.625
 20
7.653789711389858e-017
 11
-201.2500000000001
 21
1.530757942277972e-016
  0
ENDBLK
  5
6E
330
6C
100
AcDbEntity
  8
0
100
AcDbBlockEnd
  0
BLOCK
  5
70
330
6F
100
AcDbEntity
  8
0
100
AcDbBlockBegin
  2
*D9
 70
    1
 10
0
 20
0
  3
*D9
  1

  0
LINE
  5
B1
100
AcDbEntity
  8
wood ann
  6
ByBlock
 62
    0
370
   -2
100
AcDbLine
 10
-0.070568555027594
 20
1350.621003284244
 11
-2.257404320662038
 21
1369.865158021827
  0
LINE
  5
B2
100
AcDbEntity
  8
wood ann
  6
ByBlock
 62
    0
370
   -2
100
AcDbLine
 10
-15.16526295019279
 20
1348.905697102975
 11
-17.35209871582723
 21
1368.149851840559
  0
LINE
  5
B3
100
AcDbEntity
  8
wood ann
  6
ByBlock
 62
    0
370
   -2
100
AcDbLine
 10
-2.116267210606684
 20
1368.62315145334
 11
-17.21096160577188
 21
1366.907845272071
  0
SOLID
  5
B4
100
AcDbEntity
  8
wood ann
  6
ByBlock
 62
    0
370
   -2
100
AcDbTrace
 10
-2.116267210606684
 20
1368.62315145334
 30
0
 11
-4.55327777673423
 21
1367.927254609778
 31
0
 12
-4.647282918427734
 22
1368.754499856681
 32
0
 13
-4.647282918427734
 23
1368.754499856681
 33
0
  0
SOLID
  5
B5
100
AcDbEntity
  8
wood ann
  6
ByBlock
 62
    0
370
   -2
100
AcDbTrace
 10
-17.21096160577188
 20
1366.907845272071
 30
0
 11
-14.77395103964433
 21
1367.603742115634
 31
0
 12
-14.67994589795083
 22
1366.776496868731
 32
0
 13
-14.67994589795083
 23
1366.776496868731
 33
0
  0
MTEXT
  5
B6
100
AcDbEntity
  8
wood ann
  6
CONTINUOUS
 62
    0
370
   -2
100
AcDbMText
 10
128.0293983516655
 20
1434.363249127014
 30
0
 40
100
 41
272.2222222222284
 71
    5
 72
    1
  1
15,19
  7
standard
210
0
220
0
230
1
 50
6.48307369289701
 73
    2
 44
1
  0
ENDBLK
  5
71
330
6F
100
AcDbEntity
  8
0
100
AcDbBlockEnd
  0
BLOCK
  5
73
330
72
100
AcDbEntity
  8
0
100
AcDbBlockBegin
  2
*D6
 70
    1
 10
0
 20
0
  3
*D6
  1

  0
LINE
  5
B7
100
AcDbEntity
  8
ann
  6
ByBlock
 62
    0
370
   -2
100
AcDbLine
 10
330
 20
-180
 11
159.0597376784817
 21
-180
  0
SOLID
  5
B8
100
AcDbEntity
  8
ann
  6
ByBlock
 62
    0
370
   -2
100
AcDbTrace
 10
330
 20
-180
 30
0
 11
327.5
 21
-180.4162846577728
 31
0
 12
327.5
 22
-179.5837153422272
 32
0
 13
327.5
 23
-179.5837153422272
 33
0
  0
SOLID
  5
B9
100
AcDbEntity
  8
ann
  6
ByBlock
 62
    0
370
   -2
100
AcDbTrace
 10
159.0597376784817
 20
-180
 30
0
 11
161.5597376784817
 21
-179.5837153422272
 31
0
 12
161.5597376784817
 22
-180.4162846577728
 32
0
 13
161.5597376784817
 23
-180.4162846577728
 33
0
  0
MTEXT
  5
BA
100
AcDbEntity
  8
ann
  6
CONTINUOUS
 62
    0
370
   -2
100
AcDbMText
 10
522.2916666666666
 20
-129.3750000000001
 30
0
 40
100
 41
383.3333333333333
 71
    5
 72
    1
  1
170,94
  7
standard
210
0
220
0
230
1
 50
360
 73
    2
 44
1
  0
LINE
  5
BB
100
AcDbEntity
  8
ann
  6
ByBlock
 62
    0
370
   -2
100
AcDbLine
 10
330
 20
14.375
 11
330
 21
-181.25
  0
LINE
  5
BC
100
AcDbEntity
  8
ann
  6
ByBlock
 62
    0
370
   -2
100
AcDbLine
 10
159.0597376784817
 20
14.375
 11
159.0597376784817
 21
-181.25
  0
ENDBLK
  5
74
330
72
100
AcDbEntity
  8
0
100
AcDbBlockEnd
  0
ENDSEC
  0
SECTION
  2
ENTITIES
  0
LINE
  5
BD
100
AcDbEntity
  8
0
  6
ByLayer
 62
  256
370
   -1
100
AcDbLine
 10
330
 20
0
 11
330
 21
30
  0
LINE
  5
BE
100
AcDbEntity
  8
0
  6
ByLayer
 62
  256
370
   -1
100
AcDbLine
 10
30
 20
1350
 11
330
 21
1350
  0
LINE
  5
BF
100
AcDbEntity
  8
0
  6
ByLayer
 62
  256
370
   -1
100
AcDbLine
 10
330
 20
1350
 11
330
 21
1380
  0
LINE
  5
C0
100
AcDbEntity
  8
0
  6
ByLayer
 62
  256
370
   -1
100
AcDbLine
 10
330
 20
1380
 11
30
 21
1380
  0
LINE
  5
C1
100
AcDbEntity
  8
0
  6
ByLayer
 62
  256
370
   -1
100
AcDbLine
 10
0
 20
0
 11
330
 21
0
  0
DIMENSION
  5
C2
100
AcDbEntity
  8
ann
  6
ByLayer
 62
  256
370
   -1
100
AcDbDimension
  2
*D1
 10
-400.0000000000001
 20
30.00000000000005
 30
0
 11
-450.6250000000001
 21
690
 31
0
 70
   32
 71
    5
  3
Standard
 53
0
210
0
220
0
230
1
100
AcDbAlignedDimension
 13
30
 23
1350
 33
0
 14
30
 24
30
 34
0
 50
90
100
AcDbRotatedDimension
  0
LINE
  5
C3
100
AcDbEntity
  8
ann
  6
ByLayer
 62
  256
370
   -1
100
AcDbLine
 10
0
 20
0
 11
6.123031769111886e-016
 21
10
  0
LINE
  5
C4
100
AcDbEntity
  8
0
  6
ByLayer
 62
  256
370
   -1
100
AcDbLine
 10
30
 20
1380
 11
30
 21
1630
  0
LINE
  5
C5
100
AcDbEntity
  8
0
  6
ByLayer
 62
  256
370
   -1
100
AcDbLine
 10
30
 20
1630
 11
330
 21
1630
  0
LINE
  5
C6
100
AcDbEntity
  8
0
  6
ByLayer
 62
  256
370
   -1
100
AcDbLine
 10
330
 20
1630
 11
330
 21
1660
  0
LINE
  5
C7
100
AcDbEntity
  8
0
  6
ByLayer
 62
  256
370
   -1
100
AcDbLine
 10
330
 20
1660
 11
30
 21
1660
  0
LINE
  5
C8
100
AcDbEntity
  8
0
  6
ByLayer
 62
  256
370
   -1
100
AcDbLine
 10
30
 20
1660
 11
30
 21
1910
  0
LINE
  5
C9
100
AcDbEntity
  8
0
  6
ByLayer
 62
  256
370
   -1
100
AcDbLine
 10
30
 20
1910
 11
330
 21
1910
  0
LINE
  5
CA
100
AcDbEntity
  8
0
  6
ByLayer
 62
  256
370
   -1
100
AcDbLine
 10
330
 20
1910
 11
330
 21
1940
  0
LINE
  5
CB
100
AcDbEntity
  8
0
  6
ByLayer
 62
  256
370
   -1
100
AcDbLine
 10
0
 20
0
 11
1.187868163207706e-013
 21
1940
  0
LINE
  5
CC
100
AcDbEntity
  8
0
  6
ByLayer
 62
  256
370
   -1
100
AcDbLine
 10
330
 20
1940
 11
1.187868163207706e-013
 21
1940
  0
DIMENSION
  5
CD
100
AcDbEntity
  8
ann
  6
ByLayer
 62
  256
370
   -1
100
AcDbDimension
  2
*D2
 10
330
 20
2000
 30
0
 11
180
 21
2050.625
 31
0
 70
   32
 71
    5
 72
    0
  3
Standard
 53
0
210
0
220
0
230
1
100
AcDbAlignedDimension
 13
30
 23
1910
 33
0
 14
330
 24
1910
 34
0
100
AcDbRotatedDimension
  0
DIMENSION
  5
CE
100
AcDbEntity
  8
ann
  6
ByLayer
 62
  256
370
   -1
100
AcDbDimension
  2
*D3
 10
500
 20
1630
 30
0
 11
449.375
 21
1645
 31
0
 70
   32
 71
    5
 72
    0
  3
Standard
 53
0
210
0
220
0
230
1
100
AcDbAlignedDimension
 13
330
 23
1660
 33
0
 14
330
 24
1630
 34
0
 50
90
100
AcDbRotatedDimension
  0
DIMENSION
  5
CF
100
AcDbEntity
  8
ann
  6
ByLayer
 62
  256
370
   -1
100
AcDbDimension
  2
*D4
 10
700
 20
1380
 30
0
 11
649.375
 21
1505
 31
0
 70
   32
 71
    5
 72
    0
  3
Standard
 53
0
210
0
220
0
230
1
100
AcDbAlignedDimension
 13
30
 23
1630
 33
0
 14
30
 24
1380
 34
0
 50
90
100
AcDbRotatedDimension
  0
DIMENSION
  5
D0
100
AcDbEntity
  8
ann
  6
ByLayer
 62
  256
370
   -1
100
AcDbDimension
  2
*D5
 10
-600.0000000000001
 20
1940
 30
0
 11
-650.6250000000001
 21
970
 31
0
 70
   32
 71
    5
 72
    0
  3
Standard
 53
0
210
0
220
0
230
1
100
AcDbAlignedDimension
 13
0
 23
0
 33
0
 14
1.187868163207706e-013
 24
1940
 34
0
 50
90
100
AcDbRotatedDimension
  0
LINE
  5
D1
100
AcDbEntity
  8
0
  6
ByLayer
 62
  256
370
   -1
100
AcDbLine
 10
30
 20
30
 11
330
 21
30
  0
LINE
  5
D2
100
AcDbEntity
  8
0
  6
ByLayer
 62
  256
370
   -1
100
AcDbLine
 10
30
 20
30
 11
30
 21
1350
  0
LINE
  5
D3
100
AcDbEntity
  8
wood
  6
ByLayer
 62
  256
370
   -1
100
AcDbLine
 10
30
 20
1350
 11
183.4090909090909
 21
0
  0
LINE
  5
D4
100
AcDbEntity
  8
wood
  6
ByLayer
 62
  256
370
   -1
100
AcDbLine
 10
7.442247432785026e-014
 20
1215.451383141278
 11
138.1194753569635
 21
0
  0
LINE
  5
D5
100
AcDbEntity
  8
wood
  6
ByLayer
 62
  256
370
   -1
100
AcDbLine
 10
8.266092888301046e-014
 20
1350
 11
30
 21
1350
  0
LINE
  5
D6
100
AcDbEntity
  8
wood
  6
ByLayer
 62
  256
370
   -1
100
AcDbLine
 10
7.442247432785026e-014
 20
1215.451383141278
 11
8.266092888301046e-014
 21
1350
  0
LINE
  5
D7
100
AcDbEntity
  8
wood
  6
ByLayer
 62
  256
370
   -1
100
AcDbLine
 10
183.4090909090909
 20
0
 11
138.1194753569635
 21
0
  0
LINE
  5
D8
100
AcDbEntity
  8
wood ann helper
  6
ByLayer
 62
  256
370
   -1
100
AcDbLine
 10
-15.09469439516511
 20
1348.284693818731
 11
29.61754207037227
 21
1353.365629780724
  0
LINE
  5
D9
100
AcDbEntity
  8
wood ann helper
  6
ByLayer
 62
  256
370
   -1
100
AcDbLine
 10
-15.09469439516511
 20
1348.284693818731
 11
7.442247432785026e-014
 21
1215.451383141278
  0
LINE
  5
DA
100
AcDbEntity
  8
wood ann helper
  6
ByLayer
 62
  256
370
   -1
100
AcDbLine
 10
29.61754207037227
 20
1353.365629780724
 11
30
 21
1350
  0
LINE
  5
DB
100
AcDbEntity
  8
wood ann helper
  6
ByLayer
 62
  256
370
   -1
100
AcDbLine
 10
138.6968544435536
 20
-5.080935961992866
 11
183.4090909090909
 21
1.598526135838372e-015
  0
LINE
  5
DC
100
AcDbEntity
  8
wood ann helper
  6
ByLayer
 62
  256
370
   -1
100
AcDbLine
 10
138.1194753569635
 20
0
 11
138.6968544435536
 21
-5.080935961992866
  0
CIRCLE
  5
DD
100
AcDbEntity
  8
wood
  6
ByLayer
 62
  256
370
   -1
100
AcDbCircle
 10
15.00000000000004
 20
1282.725691570639
 40
3
  0
CIRCLE
  5
DE
100
AcDbEntity
  8
wood
  6
ByLayer
 62
  256
370
   -1
100
AcDbCircle
 10
159.0597376784817
 20
15
 40
3
  0
DIMENSION
  5
DF
100
AcDbEntity
  8
ann
  6
ByLayer
 62
  256
370
   -1
100
AcDbDimension
  2
*D6
 10
159.0597376784817
 20
-180
 30
0
 11
244.5298688392409
 21
-129.375
 31
0
 70
   32
 71
    5
  3
Standard
 53
0
210
0
220
0
230
1
100
AcDbAlignedDimension
 13
330
 23
15
 33
0
 14
159.0597376784817
 24
15
 34
0
100
AcDbRotatedDimension
  0
DIMENSION
  5
E0
100
AcDbEntity
  8
ann
  6
ByLayer
 62
  256
370
   -1
100
AcDbDimension
  2
*D7
 10
-200.0000000000001
 20
2.449212707644755e-014
 30
0
 11
-250.6250000000001
 21
641.3628457853195
 31
0
 70
   32
 71
    5
  3
Standard
 53
0
210
0
220
0
230
1
100
AcDbAlignedDimension
 13
15.00000000000004
 23
1282.725691570639
 33
0
 14
0
 24
0
 34
0
 50
90
100
AcDbRotatedDimension
  0
CIRCLE
  5
E1
100
AcDbEntity
  8
0
  6
ByLayer
 62
  256
370
   -1
100
AcDbCircle
 10
15.00000000000004
 20
1282.725691570639
 40
3
  0
CIRCLE
  5
E2
100
AcDbEntity
  8
0
  6
ByLayer
 62
  256
370
   -1
100
AcDbCircle
 10
159.0597376784817
 20
15
 40
3
  0
DIMENSION
  5
E3
100
AcDbEntity
  8
wood ann
  6
ByLayer
 62
  256
370
   -1
100
AcDbDimension
  2
*D8
 10
311.9761485327521
 20
14.60989291177965
 30
0
 11
285.3816401371222
 21
697.0087607593838
 31
0
 70
   33
 71
    5
  3
Standard
 53
0
210
0
220
0
230
1
100
AcDbAlignedDimension
 13
29.61754207037227
 23
1353.365629780724
 33
0
 14
183.4090909090909
 24
1.598526135838372e-015
 34
0
  0
DIMENSION
  5
E4
100
AcDbEntity
  8
wood ann
  6
ByLayer
 62
  256
370
   -1
100
AcDbDimension
  2
*D9
 10
-17.21096160577188
 20
1366.907845272071
 30
0
 11
-15.37966736543107
 21
1418.066764386435
 31
0
 70
   33
 71
    5
  3
Standard
 53
0
210
0
220
0
230
1
100
AcDbAlignedDimension
 13
8.266092888301046e-014
 23
1350
 33
0
 14
-15.09469439516511
 24
1348.284693818731
 34
0
  0
DIMENSION
  5
E5
100
AcDbEntity
  8
wood ann
  6
ByLayer
 62
  256
370
   -1
100
AcDbDimension
  2
*D10
 10
-176.0730771499649
 20
1195.443078919691
 30
0
 11
-133.319158323818
 21
1267.57578721566
 31
0
 70
   33
 71
    5
  3
Standard
 53
0
210
0
220
0
230
1
100
AcDbAlignedDimension
 13
-15.09469439516511
 23
1348.284693818731
 33
0
 14
7.442247432785026e-014
 24
1215.451383141278
 34
0
  0
DIMENSION
  5
E6
100
AcDbEntity
  8
wood ann
  6
ByLayer
 62
  256
370
   -1
100
AcDbDimension
  2
*D11
 10
287.0858479624986
 20
1313.644537930013
 30
0
 11
333.5178259050298
 21
1353.4103260018
 31
0
 70
   33
 71
    5
  3
Standard
 53
0
210
0
220
0
230
1
100
AcDbAlignedDimension
 13
7.261423837603584
 23
1350.825161799728
 33
0
 14
15.00000000000004
 24
1282.725691570639
 34
0
  0
DIMENSION
  5
E7
100
AcDbEntity
  8
wood ann
  6
ByLayer
 62
  256
370
   -1
100
AcDbDimension
  2
*D12
 10
232.771661026378
 20
5.609382967873591
 30
0
 11
282.0763095511873
 21
20.09566991561383
 31
0
 70
   33
 71
    5
  3
Standard
 53
0
210
0
220
0
230
1
100
AcDbAlignedDimension
 13
159.0597376784817
 23
15
 33
0
 14
161.0529726763222
 24
-2.540467980996432
 34
0
  0
ENDSEC
  0
SECTION
  2
OBJECTS
  0
DICTIONARY
  5
C
330
0
100
AcDbDictionary
281
    1
  3
ACAD_GROUP
350
D
  0
DICTIONARY
  5
D
330
C
100
AcDbDictionary
281
    1
  0
ENDSEC
  0
EOF
